<?xml version="1.0" encoding="UTF-8" standalone="no"?>
<!DOCTYPE svg PUBLIC "-//W3C//DTD SVG 1.1//EN" "http://www.w3.org/Graphics/SVG/1.1/DTD/svg11.dtd">
<svg xmlns="http://www.w3.org/2000/svg" version="1.1" viewBox="0 0 256 235" width="256.0pt" height="235.0pt">
<path d="M 0.00 0.00 L 256.00 0.00 L 256.00 235.00 L 0.00 235.00 L 0.00 0.00 Z" fill="#081a2c" />
<path d="M 157.12 25.85 C 170.56 32.15 181.97 43.50 187.88 57.15 C 196.43 78.52 192.99 105.28 177.93 122.99 C 168.91 133.94 156.24 142.12 142.09 144.34 C 129.47 146.73 116.38 145.10 104.60 140.04 C 112.08 133.43 120.75 128.33 130.25 125.25 C 140.37 122.32 150.45 121.84 160.92 121.96 L 160.91 121.17 C 154.91 121.26 148.97 120.13 142.99 120.34 C 133.94 121.07 125.37 121.39 116.48 123.57 C 108.24 125.78 100.25 129.05 92.63 132.87 C 88.99 130.27 85.66 127.38 82.46 124.27 C 95.85 119.65 109.82 116.96 124.00 116.71 C 138.25 116.52 152.79 117.52 166.43 121.95 C 157.79 123.24 149.18 123.63 140.62 125.59 C 131.24 127.67 122.85 132.27 116.15 139.16 C 129.37 141.66 142.98 141.26 155.21 135.20 C 168.51 128.62 179.22 117.09 183.98 102.94 C 189.41 87.66 189.09 69.96 181.53 55.44 C 175.03 42.56 163.48 32.99 150.07 27.95 C 140.64 24.71 130.72 22.96 120.80 24.80 C 106.21 26.87 92.55 35.00 83.80 46.86 C 74.71 58.47 70.57 73.85 72.44 88.46 C 73.65 99.83 78.37 109.89 84.52 119.39 C 83.19 120.24 81.87 121.09 80.54 121.94 C 73.80 111.51 68.74 100.50 67.56 87.99 C 65.93 73.57 69.59 58.81 77.82 46.85 C 87.44 32.78 103.02 22.45 120.02 20.17 C 132.76 18.75 145.55 20.07 157.12 25.85 Z" fill="#c49840" />
<path d="M 130.56 36.91 C 134.50 39.79 138.48 42.71 142.15 45.93 C 143.79 47.20 143.47 49.12 143.68 50.98 C 143.84 56.31 144.09 61.73 143.52 67.04 C 142.04 60.95 142.72 54.19 142.39 47.94 C 138.70 45.20 135.03 42.42 131.37 39.63 C 131.34 63.81 131.13 87.99 131.21 112.18 C 129.91 112.11 128.62 112.04 127.33 111.97 C 127.44 101.31 127.38 90.65 127.39 80.00 C 127.33 69.24 127.65 58.43 127.02 47.69 C 126.16 48.19 125.30 48.69 124.45 49.20 C 124.62 70.13 124.58 91.07 124.62 112.01 C 123.42 112.00 122.21 112.00 121.00 112.00 C 120.92 91.69 121.17 71.39 121.02 51.08 C 120.05 51.53 119.07 51.98 118.10 52.43 C 118.06 72.29 118.10 92.14 118.04 112.00 C 116.72 112.00 115.39 112.00 114.07 112.00 C 114.14 90.76 114.08 69.53 114.08 48.29 C 119.63 44.58 124.93 40.49 130.56 36.91 Z" fill="#c49840" />
<path d="M 152.15 63.90 C 156.88 66.85 161.46 70.05 166.00 73.28 C 165.96 87.96 166.12 102.65 165.82 117.33 L 164.50 117.37 C 164.58 103.34 164.63 89.32 164.97 75.30 C 161.39 72.97 157.79 70.66 154.27 68.24 C 154.32 83.87 154.16 99.50 154.17 115.12 C 152.78 115.05 151.39 114.98 150.00 114.92 C 149.96 101.24 150.10 87.56 150.13 73.88 C 149.43 74.26 148.72 74.64 148.01 75.02 C 147.86 88.17 148.11 101.34 147.69 114.48 C 146.58 114.11 145.60 113.57 144.74 112.87 C 144.37 111.31 144.44 109.60 144.42 108.00 C 144.54 97.57 144.82 87.14 144.84 76.71 C 143.92 76.88 143.00 77.06 142.08 77.24 C 141.87 89.18 141.97 101.13 141.67 113.08 C 140.49 113.00 139.30 112.93 138.12 112.85 C 138.09 99.42 138.13 86.00 138.10 72.57 C 142.87 69.82 147.38 66.64 152.15 63.90 Z" fill="#c49840" />
<path d="M 104.79 66.91 C 107.99 68.20 110.64 70.11 111.71 73.55 C 109.44 72.41 107.23 71.17 105.03 69.89 C 105.23 81.92 105.04 93.96 105.11 106.00 C 105.08 108.41 105.17 110.93 104.76 113.31 C 103.31 113.72 101.85 113.99 100.36 114.29 C 100.18 101.42 100.33 88.55 100.33 75.68 C 99.48 76.20 98.63 76.73 97.78 77.25 C 97.76 89.58 98.03 101.99 97.60 114.30 C 95.90 115.14 94.07 115.74 92.29 116.39 C 92.37 102.06 92.23 87.74 92.26 73.42 C 95.29 71.75 98.22 69.92 101.20 68.17 C 102.26 67.66 103.58 66.70 104.79 66.91 Z" fill="#c49840" />
<path d="M 34.60 162.01 C 35.03 164.06 35.49 166.10 36.00 168.13 C 32.56 165.86 28.88 163.64 24.73 165.72 C 22.53 166.88 22.65 169.22 24.03 170.98 C 27.06 174.37 33.48 174.96 35.95 179.00 C 38.12 182.57 37.61 188.39 33.69 190.65 C 29.18 193.33 22.80 191.93 18.01 190.70 C 17.59 188.61 17.18 186.51 16.76 184.42 C 19.43 186.14 21.75 188.00 24.98 188.53 C 27.39 188.84 29.87 188.39 31.32 186.26 C 32.65 184.72 32.05 182.64 30.59 181.42 C 27.54 179.04 23.38 178.11 20.34 175.59 C 16.72 172.25 16.86 165.90 21.02 163.05 C 25.02 160.29 30.13 161.25 34.60 162.01 Z" fill="#c49840" />
<path d="M 52.48 161.57 C 57.81 160.19 63.88 161.13 67.91 165.10 C 73.66 171.23 73.91 182.68 67.49 188.47 C 63.53 192.35 56.86 192.98 51.79 191.34 C 44.63 188.98 40.59 180.68 42.34 173.50 C 43.68 168.19 46.88 163.05 52.48 161.57 Z" fill="#c49840" />
<path d="M 111.47 161.52 C 116.24 160.26 121.80 161.12 125.50 164.55 C 132.96 171.05 131.67 185.07 123.06 190.07 C 117.16 193.57 109.28 192.25 104.41 187.59 C 100.70 183.86 99.93 177.94 100.72 172.96 C 101.72 167.35 106.09 163.08 111.47 161.52 Z" fill="#c49840" />
<path d="M 136.45 161.51 C 138.90 161.33 141.37 161.39 143.83 161.38 C 146.74 168.03 149.27 174.82 152.46 181.34 C 154.91 174.58 157.90 168.03 160.46 161.31 C 163.69 161.38 166.86 161.40 170.00 162.24 C 169.17 162.33 168.33 162.42 167.49 162.50 C 166.54 169.49 167.15 176.96 167.74 183.99 C 167.95 186.85 168.47 189.41 169.43 192.10 C 166.88 192.05 164.34 192.02 161.80 192.00 C 163.05 184.28 161.74 176.24 161.94 168.40 C 158.26 176.37 155.13 184.57 151.38 192.51 C 147.61 184.88 144.78 176.81 141.02 169.17 C 141.32 176.71 140.12 184.81 142.02 192.13 C 139.75 192.10 137.49 192.09 135.23 192.10 C 137.95 185.69 136.59 179.92 137.26 173.01 C 137.67 169.05 137.20 165.38 136.45 161.51 Z" fill="#c49840" />
<path d="M 186.21 161.22 C 192.50 160.11 198.63 162.38 202.31 167.65 C 207.40 175.36 204.31 186.95 195.91 190.91 C 187.48 194.80 176.31 189.39 174.82 180.05 C 173.10 172.08 177.90 162.85 186.21 161.22 Z" fill="#c49840" />
<path d="M 208.09 161.39 C 210.56 161.48 213.04 161.54 215.52 161.57 C 220.46 168.27 225.74 174.70 230.89 181.24 C 230.46 174.57 232.23 167.17 228.64 161.49 C 231.32 161.51 233.99 161.50 236.66 161.45 C 235.68 163.57 234.72 165.57 234.72 167.98 C 234.55 175.98 234.70 184.00 234.74 192.00 C 233.85 192.03 232.96 192.05 232.07 192.07 C 226.28 184.81 220.66 177.41 214.94 170.10 C 215.20 177.28 213.98 185.24 215.92 192.12 C 213.60 192.08 211.27 192.06 208.94 192.05 C 209.91 189.75 210.91 187.59 210.90 185.02 C 211.02 179.71 211.02 174.27 210.83 168.97 C 210.84 166.03 209.42 163.88 208.09 161.39 Z" fill="#c49840" />
<path d="M 77.17 161.49 C 80.08 161.54 82.98 161.56 85.89 161.51 C 83.20 169.71 84.96 179.25 84.35 187.85 C 88.95 188.02 92.98 187.82 97.16 185.72 C 97.07 187.69 96.98 189.66 96.89 191.63 C 90.29 191.69 83.69 191.55 77.10 191.74 C 78.25 188.87 78.96 186.12 78.92 183.00 C 78.92 176.88 79.26 170.67 78.62 164.58 C 78.15 163.54 77.66 162.51 77.17 161.49 Z" fill="#c49840" />
<path d="M 53.50 165.52 C 56.86 163.72 61.18 164.33 63.52 167.43 C 66.30 171.13 66.57 176.61 65.96 181.02 C 65.45 184.69 62.61 187.56 59.04 188.39 C 55.15 189.22 51.29 186.89 49.61 183.40 C 46.59 177.97 47.82 168.80 53.50 165.52 Z" fill="#081a2c" />
<path d="M 111.47 165.48 C 114.28 164.18 117.50 164.05 120.13 165.86 C 123.01 168.08 124.06 171.47 124.31 174.98 C 124.58 179.04 124.51 183.37 121.38 186.39 C 117.61 189.93 111.14 188.99 108.47 184.56 C 104.96 179.05 105.43 169.09 111.47 165.48 Z" fill="#081a2c" />
<path d="M 186.17 165.26 C 188.55 164.28 191.23 164.42 193.56 165.49 C 196.58 167.57 197.99 171.44 198.14 174.99 C 198.31 179.31 198.30 183.76 194.73 186.78 C 190.98 189.92 185.67 188.99 182.87 185.09 C 178.77 179.38 179.21 168.62 186.17 165.26 Z" fill="#081a2c" />
<path d="M 203.74 201.21 C 203.24 202.65 202.71 204.06 202.16 205.48 C 203.37 208.49 204.38 211.55 205.43 214.61 C 204.25 213.68 203.13 212.67 202.09 211.59 C 201.17 212.37 200.27 213.17 199.38 213.98 L 198.15 214.06 C 199.96 209.93 200.29 204.19 203.74 201.21 Z" fill="#c49840" />
<path d="M 44.38 205.97 C 46.07 205.79 47.82 205.83 49.52 205.80 C 49.01 207.52 48.67 209.27 48.09 210.97 C 48.66 212.20 49.23 213.42 49.73 214.67 C 48.37 213.69 47.08 212.61 45.75 211.58 L 45.90 214.00 L 44.22 214.00 C 44.22 211.34 44.10 208.62 44.38 205.97 Z" fill="#c49840" />
<path d="M 123.85 206.19 L 120.82 207.28 C 120.83 209.52 120.86 211.76 120.87 214.00 L 119.19 214.00 C 119.21 211.77 119.24 209.54 119.23 207.31 L 116.15 206.21 C 118.75 205.77 121.26 205.86 123.85 206.19 Z" fill="#c49840" />
<path d="M 140.82 206.20 C 139.14 206.76 137.46 207.30 135.76 207.82 C 137.33 208.65 138.89 209.47 140.44 210.32 C 140.10 211.84 139.60 213.27 138.98 214.70 C 137.15 214.02 135.62 213.19 134.05 212.04 C 135.39 212.34 136.74 212.65 138.07 212.99 C 138.39 212.55 138.70 212.11 139.01 211.66 C 137.66 210.81 136.22 209.95 134.99 208.92 C 134.98 208.01 135.04 207.11 135.19 206.19 C 137.13 205.46 138.86 205.94 140.82 206.20 Z" fill="#c49840" />
<path d="M 226.71 206.18 C 228.12 207.38 228.00 209.89 228.33 211.60 C 227.48 212.38 226.63 213.15 225.78 213.93 C 224.75 214.02 223.73 214.12 222.71 214.22 C 221.48 212.16 219.92 210.62 220.78 208.02 C 221.43 205.37 224.63 205.06 226.71 206.18 Z" fill="#c49840" />
<path d="M 236.41 206.43 C 234.72 206.76 233.04 207.11 231.37 207.49 C 232.86 208.49 234.98 209.56 235.93 211.09 C 236.87 213.72 233.08 213.57 231.49 214.50 C 231.05 213.78 230.61 213.05 230.16 212.32 C 231.71 212.28 233.24 212.11 234.79 212.27 C 233.32 211.13 231.84 210.03 230.52 208.72 C 230.50 207.67 230.56 206.62 230.70 205.57 C 232.63 205.72 234.51 206.04 236.41 206.43 Z" fill="#c49840" />
<path d="M 17.36 205.86 C 18.99 205.84 20.62 205.83 22.24 205.81 L 22.26 207.00 C 21.17 207.00 20.07 207.00 18.98 207.00 L 19.00 208.55 C 20.20 209.01 21.40 209.49 22.60 209.96 C 21.42 210.20 20.25 210.44 19.07 210.67 C 19.02 211.42 18.97 212.16 18.92 212.90 C 20.04 212.91 21.15 212.92 22.26 212.92 L 22.31 214.02 C 20.63 214.00 18.96 214.00 17.29 214.00 C 17.32 211.29 17.35 208.57 17.36 205.86 Z" fill="#c49840" />
<path d="M 25.25 204.88 C 26.52 206.51 27.82 208.11 29.01 209.80 C 30.26 208.13 31.51 206.46 32.84 204.86 C 33.03 207.91 33.03 210.97 33.01 214.04 L 31.88 214.00 C 31.90 211.97 31.93 209.94 31.95 207.91 C 30.88 209.69 29.81 211.49 28.74 213.28 C 27.84 211.52 26.94 209.77 26.03 208.02 C 26.03 210.01 26.04 212.01 26.04 214.00 L 24.97 214.00 C 24.96 210.95 24.99 207.91 25.25 204.88 Z" fill="#c49840" />
<path d="M 36.82 205.79 C 38.14 205.84 39.45 205.89 40.77 205.94 C 41.36 206.78 41.95 207.62 42.54 208.46 C 41.08 209.60 39.54 210.62 38.01 211.66 C 38.01 212.44 38.01 213.22 38.00 214.00 L 36.91 214.00 C 36.90 211.26 36.87 208.53 36.82 205.79 Z" fill="#c49840" />
<path d="M 52.92 205.82 C 54.28 205.82 55.64 205.81 57.00 205.80 L 57.00 207.01 C 56.00 207.00 55.00 207.00 54.00 207.00 L 54.00 208.80 C 55.25 209.02 56.49 209.27 57.72 209.53 C 56.38 209.85 55.22 210.41 54.04 211.12 L 53.99 212.98 C 55.03 212.94 56.06 212.90 57.09 212.87 L 57.17 214.00 C 55.72 214.00 54.28 214.00 52.83 214.00 C 52.87 211.27 52.89 208.55 52.92 205.82 Z" fill="#c49840" />
<path d="M 60.02 205.46 C 61.68 205.89 63.35 206.24 65.04 206.54 C 63.70 206.80 62.37 207.04 61.03 207.27 L 61.04 208.94 C 62.03 208.97 63.02 208.99 64.00 209.01 L 64.00 210.59 C 63.08 210.61 62.16 210.63 61.24 210.66 C 61.15 211.38 61.06 212.11 60.97 212.83 C 62.30 212.91 63.63 212.99 64.96 213.07 L 64.99 214.00 C 63.32 214.00 61.66 214.00 60.00 214.00 C 60.01 211.15 59.98 208.31 60.02 205.46 Z" fill="#c49840" />
<path d="M 67.15 204.98 C 69.05 206.79 70.74 208.78 72.31 210.88 C 72.50 208.81 72.80 206.79 73.58 204.84 C 74.06 208.17 74.03 211.50 73.75 214.83 C 71.53 212.71 69.75 210.25 67.99 207.75 C 68.01 209.83 68.01 211.92 68.05 214.00 L 66.99 214.00 C 66.98 210.99 66.99 207.98 67.15 204.98 Z" fill="#c49840" />
<path d="M 76.77 205.75 C 78.33 205.79 79.90 205.83 81.46 205.87 C 82.79 208.42 82.78 210.20 82.36 212.99 C 80.44 213.45 78.52 213.92 76.58 214.33 C 76.66 211.47 76.72 208.61 76.77 205.75 Z" fill="#c49840" />
<path d="M 86.00 205.69 L 87.14 205.76 C 87.12 208.51 87.12 211.25 87.11 214.00 L 86.00 214.00 C 85.99 211.23 86.00 208.46 86.00 205.69 Z" fill="#c49840" />
<path d="M 90.05 204.92 C 91.32 206.50 92.44 208.18 93.58 209.85 C 94.79 208.23 95.91 206.56 97.22 205.02 C 97.37 208.01 97.45 211.01 97.54 214.01 L 96.00 214.00 C 96.00 212.35 96.00 210.70 96.00 209.05 C 95.14 210.36 94.29 211.67 93.43 212.98 C 92.62 211.54 91.81 210.09 91.00 208.65 C 91.00 210.44 91.00 212.22 91.00 214.00 L 89.96 214.00 C 89.97 210.97 89.97 207.95 90.05 204.92 Z" fill="#c49840" />
<path d="M 100.84 205.84 C 102.31 205.82 103.78 205.80 105.25 205.78 L 105.37 206.99 C 104.25 207.01 103.13 207.03 102.00 207.05 L 102.00 208.77 C 103.17 209.01 104.35 209.24 105.53 209.44 C 104.42 210.15 103.26 210.64 102.01 211.05 L 102.02 212.86 C 103.15 212.90 104.29 212.94 105.43 212.99 L 105.51 214.00 C 103.95 214.00 102.40 214.00 100.84 214.00 C 100.84 211.28 100.84 208.56 100.84 205.84 Z" fill="#c49840" />
<path d="M 108.13 204.93 C 110.14 206.76 111.83 208.74 113.40 210.95 C 113.48 208.78 113.60 206.79 114.52 204.79 C 114.93 208.13 114.88 211.44 114.57 214.78 C 112.53 212.58 110.73 210.20 108.98 207.77 C 109.01 209.85 109.09 211.92 109.14 214.00 L 108.00 214.00 C 108.00 210.97 107.96 207.95 108.13 204.93 Z" fill="#c49840" />
<path d="M 126.25 206.11 C 128.39 205.14 131.31 205.32 132.23 207.84 C 133.49 210.47 131.47 212.12 130.22 214.22 C 129.26 214.12 128.29 214.02 127.33 213.92 C 126.46 213.17 125.59 212.41 124.71 211.66 C 125.04 209.87 124.90 207.44 126.25 206.11 Z" fill="#c49840" />
<path d="M 148.00 205.77 L 149.52 205.77 C 149.51 208.52 149.50 211.26 149.51 214.00 L 148.00 214.00 C 148.00 211.26 148.00 208.52 148.00 205.77 Z" fill="#c49840" />
<path d="M 153.09 204.91 C 154.27 206.55 155.38 208.23 156.46 209.93 C 157.65 208.20 158.86 206.48 160.11 204.80 C 160.35 207.86 160.47 210.93 160.52 214.00 L 159.00 214.00 C 159.00 212.23 159.00 210.47 159.00 208.70 C 158.13 210.12 157.27 211.54 156.40 212.96 C 155.60 211.60 154.80 210.24 154.00 208.87 C 154.01 210.58 154.01 212.29 154.00 214.00 L 152.67 214.00 C 152.79 210.97 152.90 207.94 153.09 204.91 Z" fill="#c49840" />
<path d="M 171.05 208.98 C 171.44 212.58 169.45 213.26 166.65 214.47 C 165.66 213.83 164.68 213.20 163.69 212.57 C 163.62 210.87 162.96 208.58 164.05 207.15 C 165.75 204.47 171.25 205.29 171.05 208.98 Z" fill="#c49840" />
<path d="M 174.00 205.32 C 175.28 205.58 176.55 205.90 177.79 206.27 C 178.87 206.74 178.79 208.48 179.07 209.48 C 179.10 210.60 179.06 211.70 178.96 212.80 C 177.96 214.11 175.49 214.01 174.00 214.41 C 174.00 211.38 173.99 208.35 174.00 205.32 Z" fill="#c49840" />
<path d="M 182.08 205.07 L 183.21 206.44 C 183.40 208.95 183.35 211.48 183.33 214.00 L 182.00 214.00 C 181.99 211.02 181.96 208.05 182.08 205.07 Z" fill="#c49840" />
<path d="M 186.96 205.69 L 188.01 205.66 C 188.00 208.09 188.01 210.51 188.00 212.94 C 189.33 212.93 190.67 212.92 192.00 212.91 L 192.00 214.00 C 190.30 214.00 188.59 214.00 186.89 214.00 C 186.93 211.23 186.95 208.46 186.96 205.69 Z" fill="#c49840" />
<path d="M 194.36 204.72 C 195.96 207.73 195.60 210.72 195.67 214.00 L 193.98 214.00 C 193.96 210.90 193.97 207.81 194.36 204.72 Z" fill="#c49840" />
<path d="M 208.00 205.36 C 210.97 205.90 212.22 205.86 213.73 208.68 C 212.85 209.25 211.97 209.81 211.09 210.38 C 211.98 211.61 212.87 212.84 213.75 214.07 C 212.91 214.02 212.07 213.98 211.23 213.93 C 210.59 212.42 209.97 210.90 209.41 209.36 C 210.19 208.84 210.96 208.29 211.70 207.71 C 210.93 207.30 210.16 206.89 209.39 206.49 C 209.33 208.99 209.25 211.50 209.12 214.00 L 208.00 214.00 C 208.00 211.12 208.00 208.24 208.00 205.36 Z" fill="#c49840" />
<path d="M 217.63 204.85 C 217.93 207.89 217.98 210.94 217.98 214.00 L 215.96 214.00 C 216.19 210.61 215.26 207.62 217.63 204.85 Z" fill="#c49840" />
<path d="M 39.75 207.21 C 40.81 208.33 39.58 210.31 38.17 209.41 C 37.19 208.23 38.22 206.26 39.75 207.21 Z" fill="#081a2c" />
<path d="M 46.03 207.19 C 47.83 206.08 48.97 208.84 46.85 209.21 C 45.71 208.87 45.44 208.20 46.03 207.19 Z" fill="#081a2c" />
<path d="M 78.22 206.25 C 80.50 207.99 80.92 208.65 81.34 211.52 C 80.22 212.02 79.09 212.53 77.97 213.04 C 78.02 210.77 78.08 208.51 78.22 206.25 Z" fill="#081a2c" />
<path d="M 130.08 206.62 C 131.46 209.85 130.60 210.95 128.98 213.79 C 128.05 212.40 125.78 210.42 126.69 208.58 C 127.03 206.66 128.61 207.19 130.08 206.62 Z" fill="#081a2c" />
<path d="M 169.18 206.41 C 169.08 209.02 169.83 211.09 167.67 213.06 C 165.22 212.73 164.73 210.34 164.99 208.22 C 166.34 207.48 167.73 206.93 169.18 206.41 Z" fill="#081a2c" />
<path d="M 175.22 207.16 C 177.01 205.96 178.11 208.76 176.04 209.18 C 174.92 208.87 174.65 208.20 175.22 207.16 Z" fill="#081a2c" />
<path d="M 225.35 206.69 C 226.00 207.80 226.64 208.92 227.26 210.05 C 226.08 211.25 224.89 212.42 223.68 213.59 C 223.01 212.00 221.61 210.08 222.16 208.33 C 223.01 207.27 224.14 207.10 225.35 206.69 Z" fill="#081a2c" />
<path d="M 201.29 209.29 L 202.11 209.30 L 202.53 210.02 L 202.12 210.73 L 201.30 210.72 L 200.89 210.00 L 201.29 209.29 Z" fill="#081a2c" />
<path d="M 175.91 210.14 C 176.70 210.16 177.44 210.48 178.13 211.11 C 177.89 211.98 177.41 212.60 176.70 212.98 C 174.76 213.59 174.07 210.61 175.91 210.14 Z" fill="#081a2c" />
</svg>